<svg width="168" height="40" viewBox="0 0 168 40" fill="none" xmlns="http://www.w3.org/2000/svg">
<mask id="mask0_4682_107" style="mask-type:luminance" maskUnits="userSpaceOnUse" x="0" y="4" width="168" height="32">
<path d="M167.529 4H0V36H167.529V4Z" fill="white"/>
</mask>
<g mask="url(#mask0_4682_107)">
<mask id="mask1_4682_107" style="mask-type:luminance" maskUnits="userSpaceOnUse" x="0" y="4" width="168" height="32">
<path d="M167.529 4H0V36H167.529V4Z" fill="white"/>
</mask>
<g mask="url(#mask1_4682_107)">
<path d="M56.0394 20.7673C56.0394 25.7094 52.6943 27.7511 49.2882 27.7511C45.8666 27.7511 42.5364 25.7094 42.5364 20.7673V11.8232H45.7299V20.4596C45.7299 23.4572 47.2962 24.559 49.2882 24.559C51.2802 24.559 52.8465 23.4572 52.8465 20.4596V11.8232H56.0394V20.7673Z" fill="#0B23A9"/>
<path d="M62.3653 6.60254H59.0806V27.3428H62.3653V6.60254Z" fill="#0B23A9"/>
<path d="M72.3347 14.5097H68.5631V22.2873C68.5631 24.3612 69.8407 24.3289 72.3347 24.1994V27.3428C67.3164 27.991 65.2791 26.5327 65.2791 22.2873V6.60254H68.5631V11.1397H72.3347V14.5097Z" fill="#0B23A9"/>
<path d="M105.181 6.60254H101.897V27.3428H105.181V6.60254Z" fill="#0B23A9"/>
<path d="M131.1 14.5097H127.328V22.2873C127.328 24.3612 128.606 24.3289 131.1 24.1994V27.3428C126.081 27.991 124.044 26.5327 124.044 22.2873V6.60254H127.328V11.1397H131.1V14.5097Z" fill="#0B23A9"/>
<path d="M133.52 12.9319H136.807V27.3421H133.52V12.9319ZM133.675 9.85322C132.853 8.94585 132.853 7.58468 133.675 6.70982C134.494 5.80245 135.834 5.80245 136.655 6.70982C137.474 7.58468 137.474 8.94585 136.622 9.85322C135.802 10.7281 134.526 10.7281 133.675 9.85322Z" fill="#0B23A9"/>
<path d="M118.85 11.1465H122.348L116.508 27.8682C114.728 32.874 113.376 33.831 109.059 33.831L109.088 30.558C111.156 30.6873 112.312 29.6182 113.132 27.3821L113.285 27.0579L106.838 11.1465H110.426L114.957 22.9098L118.85 11.1465Z" fill="#0B23A9"/>
<path d="M141.464 25.3039C139.944 23.651 139.183 21.642 139.183 19.2438C139.183 16.8134 139.944 14.804 141.464 13.1839C143.015 11.531 144.931 10.7207 147.213 10.7207C150.162 10.7207 152.778 12.3413 153.995 14.9013L151.166 16.6513C150.466 15.0959 149.007 14.1561 147.182 14.1561C145.843 14.1561 144.719 14.6421 143.806 15.6143C142.924 16.5865 142.468 17.7855 142.468 19.2438C142.468 20.702 142.924 21.9011 143.806 22.8735C144.719 23.8455 145.843 24.3318 147.182 24.3318C148.976 24.3318 150.497 23.3594 151.227 21.8364L154.055 23.554C152.747 26.1466 150.162 27.7666 147.213 27.7666C144.931 27.7666 143.015 26.9566 141.464 25.3039Z" fill="#0B23A9"/>
<path d="M162.187 17.7205C164.529 18.2714 167.57 19.3086 167.509 22.7759C167.509 24.3315 166.931 25.5631 165.807 26.438C164.681 27.3128 163.282 27.7666 161.579 27.7666C158.568 27.7666 156.348 26.3409 155.375 23.9751L158.203 22.2252C158.721 23.7806 159.845 24.5584 161.579 24.5584C163.313 24.5584 164.164 23.9425 164.164 22.7435C164.164 21.7065 162.886 21.0908 161.275 20.6695C158.993 20.0539 155.922 19.0817 155.983 15.6788C155.983 14.1881 156.5 12.9892 157.565 12.0819C158.629 11.1745 159.967 10.7207 161.549 10.7207C164.073 10.7207 166.111 11.9845 167.175 14.091L164.408 15.7436C163.89 14.5123 162.917 13.8966 161.549 13.8966C160.302 13.8966 159.329 14.48 159.329 15.6143C159.329 16.6835 160.606 17.2344 162.187 17.7205Z" fill="#0B23A9"/>
<path d="M91.3391 24.4289C92.7081 24.4289 93.8635 23.9425 94.7761 22.9707C95.6881 21.966 96.1446 20.7343 96.1446 19.2439C96.1446 17.7531 95.6881 16.5214 94.7761 15.5493C93.8635 14.5449 92.7081 14.0588 91.3391 14.0588C89.9709 14.0588 88.8149 14.5449 87.9026 15.5493C86.9904 16.5214 86.5343 17.7531 86.5343 19.2439C86.5343 20.7343 86.9904 21.966 87.9026 22.9707C88.8149 23.9425 89.9709 24.4289 91.3391 24.4289ZM96.1446 11.1423H99.4293V27.3454H96.1446V25.012C94.8975 26.8593 93.1339 27.7667 90.8225 27.7667C88.7241 27.7667 86.9601 26.9564 85.4697 25.304C83.9792 23.6511 83.2496 21.6094 83.2496 19.2439C83.2496 16.8457 83.9792 14.8366 85.4697 13.1837C86.9601 11.531 88.7241 10.7207 90.8225 10.7207C93.1339 10.7207 94.8975 11.6284 96.1446 13.4431V11.1423Z" fill="#0B23A9"/>
<path d="M77.9483 14.0812C78.7477 12.1248 80.2878 11.1465 82.5089 11.1465V14.8387C81.2951 14.744 80.2289 15.0595 79.3108 15.7855C78.3926 16.4797 77.9483 17.6473 77.9483 19.2567V27.2095H74.7496V11.4305H77.9483V14.0812Z" fill="#0B23A9"/>
</g>
<path d="M18.7475 13.2194L18.7436 17.4372C18.7573 23.1917 14.047 27.8882 8.29457 27.8823C6.00935 27.8783 3.92901 27.1849 2.24268 25.9713C5.26666 31.3929 11.0684 35.0551 17.6639 35.0591C26.6473 35.0591 33.9166 28.5619 35.1025 18.2154C35.2621 16.8266 35.4177 14.8959 35.3665 13.0559C35.2405 8.5446 31.592 4.92962 27.0432 4.94144C22.4728 4.93553 18.7337 8.6431 18.7475 13.2194Z" fill="url(#paint0_linear_4682_107)"/>
<path d="M8.28589 25.7261C12.862 25.7261 16.5718 22.0164 16.5718 17.4402C16.5718 12.864 12.862 9.1543 8.28589 9.1543C3.70972 9.1543 0 12.864 0 17.4402C0 22.0164 3.70972 25.7261 8.28589 25.7261Z" fill="#0725CE"/>
</g>
<defs>
<linearGradient id="paint0_linear_4682_107" x1="9.96116" y1="34.7458" x2="28.8832" y2="13.7199" gradientUnits="userSpaceOnUse">
<stop stop-color="#09DBF0"/>
<stop offset="1" stop-color="#0B23A9"/>
</linearGradient>
</defs>
</svg>
